<svg xmlns="http://www.w3.org/2000/svg" width="134" height="40" viewBox="0 0 134 40">
  <g id="Group_27" data-name="Group 27" transform="translate(-4345 -691)">
    <g id="Rectangle_12" data-name="Rectangle 12" transform="translate(4345 691)" stroke="#000" stroke-width="2">
      <rect width="134" height="40" stroke="none"/>
      <rect x="1" y="1" width="132" height="38" fill="none"/>
    </g>
    <path id="iconmonstr-thumb-6" d="M19.406,14.442A2.433,2.433,0,0,0,22,11.936a69.145,69.145,0,0,0-1.486-8.25C19.8,1,18.043,0,15.505,0a13.263,13.263,0,0,0-5.336,1.158A18.331,18.331,0,0,1,2,3v9.928c3.086.4,6.43.956,8.4,7.744.483,1.66.972,3.328,2.833,3.328,3.448,0,3.005-5.531,2.2-8.814a12.892,12.892,0,0,1,3.977-.744ZM19.2,12.45a16.355,16.355,0,0,0-6.12,1.556A21.99,21.99,0,0,1,14,19.539c0,2.505-.781,3.666-1.679.574C10.328,13.254,7.264,11.749,4,11V5A18.869,18.869,0,0,0,10.959,3c1.731-.745,4.849-1.5,6.416-.614,1.3.836,1.114,1.734.292,1.661L16.9,4.01a.574.574,0,1,0-.109,1.141s1.321.062,1.745.115c.976.123,1.028,1.607-.04,1.551-.457-.024-1.143-.041-1.143-.041a.59.59,0,0,0-.141,1.172s.714.005,1.761.1,1.078,1.609,0,1.563C18.1,9.573,17.9,9.583,17.9,9.583a.562.562,0,0,0-.141,1.115l1.394.167c1.075.13,1.1,1.526.05,1.585Z" transform="translate(4358 701)" fill="#fff"/>
    <text id="Not_Good" data-name="Not Good" transform="translate(4387 724)" fill="#fff" font-size="16" font-family="HiraMinProN-W6, Hiragino Mincho ProN"><tspan x="0" y="0">Not Good</tspan></text>
    <text id="_0_Likes" data-name="0 Likes" transform="translate(4387 706)" fill="#fff" font-size="10" font-family="HiraMinProN-W6, Hiragino Mincho ProN"><tspan x="0" y="0">0 Likes</tspan></text>
  </g>
</svg>
